<?xml version="1.0" encoding="UTF-8"?>
<svg id="_レイヤー_2" data-name="レイヤー 2" xmlns="http://www.w3.org/2000/svg" viewBox="0 0 563.08 641.42">
  <defs>
    <style>
      .cls-1 {
        fill: #fff;
      }
    </style>
  </defs>
  <g id="design">
    <path class="cls-1" d="M212.6,362.8c-1.19-1.01-1.94-1.64-2.44-2.12l12.45,21.61c-.23-4.19-6.81-13.55-10-19.49ZM209.26,359.13c0,.53.21.91.89,1.55l-.89-1.55ZM226.61,370.77c-2.3-3.9-.06-2.11-3.14-5.33.31,2.25,1.36,4.03,3.14,5.33ZM231.86,398.62c0-2.16-1-3.99-2.96-5.52-.36,1.92.63,3.76,2.96,5.52ZM100.73,7.27c-.09,114.19-61.94,387.57-100.73,457.57,4.84,1.31,49.69-78.57,52.14-89.87,6.69-24.3,9.55-58.59,20.38-81.87,1.48,16.95-8.44,38.67-8.09,56.55,6.2-18.47,8.17-39.79,13.15-58.68,5.81-21.73,46.86-134.68,47.56-136.4,16.43,73.5,49.94,141.37,84.13,204.55,0-.46.12-1.05.2-2.09,5.55,7.61,9.77,14.48,14.89,22.72,3.98-2.29-49.24-86.64-79.59-184.24-5.64-17.91-10.41-36.27-14.03-54.38.35-.82.73-1.62,1.09-2.44,7.67,39.86,21,78.5,36.16,115.57,7.83,18.76,15.97,37.35,24.97,55.5,7.39,15.04,18.19,42.6,29.9,54.6.84,2.71-.49-2.22-1.02-4.04,3.07,6.64,41.64,65.49,45.85,70.43,19.09,29.63,42.46,56.96,64.01,84.77,25.17,32.33,55.45,54.92,87.36,80.77,9.92,9.04,49.98,44.35,65.05,41.8-1.14,1.31-55.17-38.35-59.36-44.53,5.82,4.01,11.73,8.22,17.78,11.75-6.42-5.26-43.25-35.86-73.15-70.09-30.57-33.62-55.12-69.28-55.14-69.22,33.08,43.53,69.43,84.99,111.59,120.23,6.08,5.48,12.64,10.08,19.37,14.54,1.85,2.3,4.18,4.2,6.95,5.74l-1.71-2.67c7.89,4.46,15.74,9.28,24.24,14.24,24.34,15.33,51.5,24.96,77.29,23.11-2.55-.43-10.15-1.98-12.62-5,5.42,1.14,21.01,3.61,23.75.07-11.05-4.17-15.54-7.24-29.62-10.13-10.69-2.27-24.57-6.16-33.43-10.91-22.55-11.25-43.44-28.05-62.93-44.68-39.42-31.67-72.87-71.51-103.79-112.08-50.13-66-90.26-136.2-123.02-211.12-12.27-29.3-23.2-58.63-31.12-87.95,11.77,11.45,23.71,23.74,36.04,34.91-2.45-1.61-4.69-2.71-6.53-2.97,13.45,16.86,43.28,41.97,66.38,54.83,5.38,3.64,11.54,7.16,18.51,10.42,3.98,1.56,3.2,4.58-1.11,2.84-15.29-7.24-25.79-15.31-35.66-22.7-8.81-5.95-51.68-43.9-51.96-41.58.35-.06,23.13,23.79,52.95,47.61,7.67,5.91,19.8,15.12,29.86,19.61,63,28.12,101.25,33.75,122.62,39.37s48.09,14.62,48.09,14.62c-16.87-14.62-85.37-62.01-108-86.62-7.59-7.31-17.6-16.96-17.73-16.66-8.91-10.32-9.39-10.14-12.28-11.09.25,2.92,1.54,5.22,3.88,6.95l10.46,12.73-1.5,2.88-21.03-26.47c-30.84-38.24-69.09-74.31-97.29-114.35.47-1.26,95.24,109.33,104.73,117.25-6.73-16.36-29.21-34.72-40.74-48.21-14.68-17.6-30.86-33.66-45.29-50.8-19.24-22.88-60.48-84.74-65.78-88.57-27.45-22.11-60.29-11.36-67.04-6.12ZM172.79,281.49l-3.76-6.53c-5.03-10.98-11.63-22.86-14.26-34.76,6.12,13.89,11.26,27.78,18.02,41.3ZM293.72,435.44c-1.57,4.06,15.22,23.63,19.17,28.9-4.2.14-19.37-24.17-22.34-30.35l3.17,1.45ZM224.68,319.1c-2.07,4.16-7.2-5.16-4.57-8.52.83,3.19,2.44,5.99,4.57,8.52ZM213.3,298.12c-2.61,1.32-5.23-4.19-3.48-6.37l3.48,6.37ZM204.28,278.68c-1.63,1.44-2.58.09-2.83-4.01l2.83,4.01ZM125.03,40.44l1.48,2.36c-.56,4.11-1.03,8.21-1.19,12.31-.62,12.74-.42,25.38.43,37.93-.6.19-1.19.4-1.77.66-1.1-14.01-1.29-27.44-.36-39.91.4-4.61.86-9.05,1.41-13.36ZM118.2,56.72c-1.11,12.63.38,29.96-.3,41.17-.11.1-.21.19-.32.29-.36-13.82-2.29-29.91.62-41.46ZM168.59,106.95c-.28-2.23-.51-4.46-.74-6.7,1.53,1.31,3.06,2.51,4.56,3.47,1.97,2.6,6.06,7.78,11.15,14.11-4.89-3.68-9.88-7.31-14.96-10.88ZM302.68,255.21c2.82.83,1,2.6-2.07,1.32-6.66-2.5-11.7-5.46-16.38-8.4-13.98-8.86-27.06-16.63-38.52-26.7-2.75-2.17-6.83-6.17-11.41-10.55,7.05,5.66,14.28,11.15,22.13,16.18,13.46,10.15,25.65,20.72,46.24,28.15ZM169.17,31.58c29.03,45.12,65.81,85.22,102.6,125.92,13.85,12.79,27.56,28.08,40.81,43.89,6.44,8.12,12.78,16.37,18.97,24.51l.54.71-1.27,2.45-.15-.19-7.75-9.38-15.52-18.72c-21.16-24.34-42.72-48.04-63.17-72.12-21.36-23.95-42.55-48.35-61.41-74.56-5.02-6.56-9.69-13.34-14.22-20.23.17-.79.32-1.58.52-2.37.02.02.04.07.05.09ZM225.6,387.04c-.3-1.67-1.25-3.17-2.83-4.49.47,3.69,1.16,4.69,3.54,8.48,1.98-.96-.35-2.09-.71-3.98ZM227.55,372.37c-.23-.62-.44,3.61,2.21,6.63,2.26-1.51.58-2.78-2.21-6.63Z"/>
  </g>
</svg>