<?xml version="1.0" encoding="UTF-8"?>
<svg id="_レイヤー_2" data-name="レイヤー 2" xmlns="http://www.w3.org/2000/svg" viewBox="0 0 277.28 277.28">
  <defs>
    <style>
      .cls-1 {
        fill: #002457;
      }
    </style>
  </defs>
  <g id="original">
    <path class="cls-1" d="M138.64,0C62.07.01.01,62.06,0,138.64c.01,76.57,62.07,138.63,138.64,138.63,76.57,0,138.63-62.06,138.64-138.63C277.27,62.06,215.22.01,138.64,0ZM246.51,131.24h-92.62v-44.63c17.84-9,33.48-21.73,45.86-37.17,5.49,3.77,10.63,8.04,15.34,12.75,17.96,17.98,29.6,42.11,31.41,69.06ZM123.39,131.24H30.77c.94-14.03,4.55-27.3,10.32-39.33,15.65,6.12,32.7,9.49,50.48,9.49,10.95,0,21.6-1.28,31.83-3.68v33.52ZM138.64,30.5c11.47,0,22.49,1.79,32.84,5.08-19.77,21.71-48.23,35.31-79.92,35.31-11.48,0-22.51-1.78-32.85-5.08,1.13-1.23,2.28-2.45,3.47-3.63,19.61-19.6,46.55-31.67,76.46-31.68ZM32.98,161.74h90.41v83.96c-23.77-3.35-44.99-14.4-61.21-30.59-14.4-14.41-24.72-32.78-29.2-53.37ZM215.1,215.1c-16.22,16.19-37.44,27.25-61.2,30.59v-83.96h90.4c-4.47,20.59-14.8,38.96-29.2,53.37Z"/>
  </g>
</svg>