<?xml version="1.0" encoding="UTF-8"?>
<svg id="_レイヤー_2" data-name="レイヤー 2" xmlns="http://www.w3.org/2000/svg" viewBox="0 0 60 60">
  <defs>
    <style>
      .cls-1 {
        fill: #fff;
      }

      .cls-2 {
        fill: #00ad6b;
      }
    </style>
  </defs>
  <g id="_レイヤー_1-2" data-name="レイヤー 1">
    <g>
      <circle class="cls-1" cx="30" cy="30" r="30"/>
      <path class="cls-2" d="M31.19.02C14.63-.63.68,12.25.02,28.81c-.66,16.56,12.23,30.51,28.79,31.17,16.56.66,30.51-12.23,31.17-28.79C60.63,14.63,47.75.68,31.19.02ZM43.85,43.97c-.37.66-1.1.99-1.81.89-.22-.03-.43-.1-.64-.22-3.96-2.26-8.29-3.73-12.84-4.37-4.56-.64-9.12-.42-13.55.66-.96.23-1.93-.36-2.16-1.32-.23-.96.36-1.93,1.32-2.16,4.88-1.18,9.89-1.43,14.89-.72,5.01.7,9.76,2.32,14.12,4.8.86.49,1.16,1.58.67,2.44ZM47.8,36.1c-.61,1.13-2.03,1.55-3.16.94-4.64-2.51-9.66-4.16-14.93-4.9-5.27-.74-10.55-.54-15.7.59-.28.06-.56.07-.82.03-.94-.13-1.74-.83-1.95-1.81-.28-1.26.52-2.5,1.77-2.77,5.7-1.25,11.53-1.47,17.35-.66,5.82.82,11.37,2.64,16.5,5.41,1.13.61,1.55,2.02.94,3.16ZM52.17,27.22c-.58,1.11-1.77,1.68-2.94,1.52-.31-.04-.63-.14-.92-.3-5.4-2.81-11.22-4.67-17.3-5.52-6.07-.85-12.18-.67-18.15.54-1.55.31-3.06-.69-3.38-2.24-.31-1.55.69-3.06,2.24-3.38,6.61-1.34,13.36-1.54,20.08-.6,6.72.94,13.16,3,19.14,6.11,1.4.73,1.95,2.46,1.22,3.86Z"/>
    </g>
  </g>
</svg>